<svg width="254" height="60" viewBox="0 0 254 60" fill="none" xmlns="http://www.w3.org/2000/svg">
<rect x="217" y="52" width="9" height="35" transform="rotate(-90 217 52)" fill="url(#paint0_linear)"/>
<path d="M20.8 7.072C25.536 7.072 29.6747 8.01066 33.216 9.888C36.7573 11.7653 39.488 14.4107 41.408 17.824C43.3707 21.1947 44.352 25.0987 44.352 29.536C44.352 33.9307 43.3707 37.8347 41.408 41.248C39.488 44.6613 36.736 47.3067 33.152 49.184C29.6107 51.0613 25.4933 52 20.8 52H3.968V7.072H20.8ZM20.096 42.528C24.2347 42.528 27.456 41.3973 29.76 39.136C32.064 36.8747 33.216 33.6747 33.216 29.536C33.216 25.3973 32.064 22.176 29.76 19.872C27.456 17.568 24.2347 16.416 20.096 16.416H14.912V42.528H20.096ZM80.932 33.568C80.932 34.592 80.868 35.6587 80.74 36.768H55.972C56.1427 38.9867 56.8467 40.6933 58.084 41.888C59.364 43.04 60.9213 43.616 62.756 43.616C65.4867 43.616 67.3853 42.464 68.452 40.16H80.1C79.5027 42.5067 78.4147 44.6187 76.836 46.496C75.3 48.3733 73.3587 49.8453 71.012 50.912C68.6653 51.9787 66.0413 52.512 63.14 52.512C59.6413 52.512 56.5267 51.7653 53.796 50.272C51.0653 48.7787 48.932 46.6453 47.396 43.872C45.86 41.0987 45.092 37.856 45.092 34.144C45.092 30.432 45.8387 27.1893 47.332 24.416C48.868 21.6427 51.0013 19.5093 53.732 18.016C56.4627 16.5227 59.5987 15.776 63.14 15.776C66.596 15.776 69.668 16.5013 72.356 17.952C75.044 19.4027 77.1347 21.472 78.628 24.16C80.164 26.848 80.932 29.984 80.932 33.568ZM69.732 30.688C69.732 28.8107 69.092 27.3173 67.812 26.208C66.532 25.0987 64.932 24.544 63.012 24.544C61.1773 24.544 59.62 25.0773 58.34 26.144C57.1027 27.2107 56.3347 28.7253 56.036 30.688H69.732ZM96.3695 41.76L104.114 16.288H115.762L103.09 52H89.5855L76.9135 16.288H88.6255L96.3695 41.76ZM127.472 43.552H141.808V52H116.528V7.072H127.472V43.552ZM176.852 33.568C176.852 34.592 176.788 35.6587 176.66 36.768H151.892C152.063 38.9867 152.767 40.6933 154.004 41.888C155.284 43.04 156.841 43.616 158.676 43.616C161.407 43.616 163.305 42.464 164.372 40.16H176.02C175.423 42.5067 174.335 44.6187 172.756 46.496C171.22 48.3733 169.279 49.8453 166.932 50.912C164.585 51.9787 161.961 52.512 159.06 52.512C155.561 52.512 152.447 51.7653 149.716 50.272C146.985 48.7787 144.852 46.6453 143.316 43.872C141.78 41.0987 141.012 37.856 141.012 34.144C141.012 30.432 141.759 27.1893 143.252 24.416C144.788 21.6427 146.921 19.5093 149.652 18.016C152.383 16.5227 155.519 15.776 159.06 15.776C162.516 15.776 165.588 16.5013 168.276 17.952C170.964 19.4027 173.055 21.472 174.548 24.16C176.084 26.848 176.852 29.984 176.852 33.568ZM165.652 30.688C165.652 28.8107 165.012 27.3173 163.732 26.208C162.452 25.0987 160.852 24.544 158.932 24.544C157.097 24.544 155.54 25.0773 154.26 26.144C153.023 27.2107 152.255 28.7253 151.956 30.688H165.652ZM196.322 52.512C192.823 52.512 189.666 51.7653 186.85 50.272C184.076 48.7787 181.879 46.6453 180.258 43.872C178.679 41.0987 177.89 37.856 177.89 34.144C177.89 30.4747 178.7 27.2533 180.322 24.48C181.943 21.664 184.162 19.5093 186.978 18.016C189.794 16.5227 192.951 15.776 196.45 15.776C199.948 15.776 203.106 16.5227 205.922 18.016C208.738 19.5093 210.956 21.664 212.578 24.48C214.199 27.2533 215.01 30.4747 215.01 34.144C215.01 37.8133 214.178 41.056 212.514 43.872C210.892 46.6453 208.652 48.7787 205.794 50.272C202.978 51.7653 199.82 52.512 196.322 52.512ZM196.322 43.04C198.412 43.04 200.183 42.272 201.634 40.736C203.127 39.2 203.874 37.0027 203.874 34.144C203.874 31.2853 203.148 29.088 201.698 27.552C200.29 26.016 198.54 25.248 196.45 25.248C194.316 25.248 192.546 26.016 191.138 27.552C189.73 29.0453 189.026 31.2427 189.026 34.144C189.026 37.0027 189.708 39.2 191.074 40.736C192.482 42.272 194.231 43.04 196.322 43.04Z" fill="url(#paint1_linear)"/>
<defs>
<linearGradient id="paint0_linear" x1="221.5" y1="52" x2="221.5" y2="87" gradientUnits="userSpaceOnUse">
<stop stop-color="#00B0BD"/>
<stop offset="1" stop-color="#3730A3"/>
</linearGradient>
<linearGradient id="paint1_linear" x1="-9.46224e-07" y1="30" x2="254" y2="30" gradientUnits="userSpaceOnUse">
<stop stop-color="#00C6C2"/>
<stop offset="0.395833" stop-color="#00B0BD"/>
<stop offset="1" stop-color="#3730A3"/>
</linearGradient>
</defs>
</svg>
